<?xml version="1.0" encoding="UTF-8" standalone="no"?>
<svg
   viewBox="0 0 1024 1024"
   width="1024"
   height="1024"
   version="1.1"
   id="svg3"
   sodipodi:docname="logo.svg"
   inkscape:version="1.4.3 (0d15f75, 2025-12-25)"
   xmlns:inkscape="http://www.inkscape.org/namespaces/inkscape"
   xmlns:sodipodi="http://sodipodi.sourceforge.net/DTD/sodipodi-0.dtd"
   xmlns="http://www.w3.org/2000/svg"
   xmlns:svg="http://www.w3.org/2000/svg">
  <sodipodi:namedview
     id="namedview3"
     pagecolor="#ffffff"
     bordercolor="#000000"
     borderopacity="0.25"
     inkscape:showpageshadow="2"
     inkscape:pageopacity="0.0"
     inkscape:pagecheckerboard="0"
     inkscape:deskcolor="#d1d1d1"
     inkscape:zoom="0.859375"
     inkscape:cx="512.58182"
     inkscape:cy="513.74545"
     inkscape:window-width="2560"
     inkscape:window-height="1412"
     inkscape:window-x="0"
     inkscape:window-y="0"
     inkscape:window-maximized="0"
     inkscape:current-layer="svg3" />
  <defs
     id="defs2">
    <linearGradient
       id="bg"
       x1="0"
       y1="0"
       x2="1024"
       y2="1024"
       gradientUnits="userSpaceOnUse">
      <stop
         offset="0"
         stop-color="#6c5ce7"
         id="stop1" />
      <stop
         offset="1"
         stop-color="#0984e3"
         id="stop2" />
    </linearGradient>
  </defs>
  <rect
     width="1024"
     height="1024"
     fill="url(#bg)"
     id="rect2" />
  <g
     transform="matrix(33.535845,0,0,33.500901,109.56986,123.98919)"
     fill="none"
     stroke="#ffffff"
     stroke-width="1.6"
     stroke-linecap="round"
     stroke-linejoin="round"
     id="g3">
    <path
       d="M 12,7 V 21"
       id="path2" />
    <path
       d="M 3,18 A 1,1 0 0 1 2,17 V 4 A 1,1 0 0 1 3,3 h 5 a 4,4 0 0 1 4,4 4,4 0 0 1 4,-4 h 5 a 1,1 0 0 1 1,1 v 13 a 1,1 0 0 1 -1,1 h -6 a 3,3 0 0 0 -3,3 3,3 0 0 0 -3,-3 z"
       id="path3" />
  </g>
</svg>
